<svg width="144" height="38" viewBox="0 0 144 38" fill="none" xmlns="http://www.w3.org/2000/svg">
<g filter="url(#filter0_d_6_1565)">
<mask id="path-1-outside-1_6_1565" maskUnits="userSpaceOnUse" x="3.92651" y="-0.487976" width="136" height="31" fill="black">
<rect fill="white" x="3.92651" y="-0.487976" width="136" height="31"/>
<path d="M5.53451 23.512L14.1865 3.91202H19.6465L28.3265 23.512H22.5585L15.7825 6.62802H17.9665L11.1905 23.512H5.53451ZM10.2665 19.704L11.6945 15.616H21.2705L22.6985 19.704H10.2665ZM28.2462 23.512V8.33602H33.3142V12.648L32.3342 11.388C32.9129 10.2867 33.7062 9.46536 34.7142 8.92402C35.7222 8.36402 36.8609 8.08402 38.1302 8.08402C39.3062 8.08402 40.3702 8.32669 41.3222 8.81202C42.2742 9.27869 43.0209 10.0067 43.5622 10.996C44.1222 11.9854 44.4022 13.264 44.4022 14.832V23.512H39.0822V15.7C39.0822 14.6174 38.8582 13.8334 38.4102 13.348C37.9809 12.844 37.3742 12.592 36.5902 12.592C36.0302 12.592 35.5169 12.7227 35.0502 12.984C34.5836 13.2267 34.2196 13.6094 33.9582 14.132C33.6969 14.6547 33.5662 15.336 33.5662 16.176V23.512H28.2462ZM46.3423 23.512V8.33602H51.6623V23.512H46.3423ZM49.0023 6.65602C48.0317 6.65602 47.2477 6.38536 46.6503 5.84402C46.053 5.30269 45.7543 4.63069 45.7543 3.82802C45.7543 3.02536 46.053 2.35336 46.6503 1.81202C47.2477 1.27069 48.0317 1.00002 49.0023 1.00002C49.973 1.00002 50.757 1.26136 51.3543 1.78402C51.9517 2.28802 52.2503 2.94136 52.2503 3.74402C52.2503 4.58402 51.9517 5.28402 51.3543 5.84402C50.7757 6.38536 49.9917 6.65602 49.0023 6.65602ZM53.9717 23.512V3.91202H62.7357C65.5917 3.91202 67.785 4.56536 69.3157 5.87202C70.865 7.16002 71.6397 8.92402 71.6397 11.164C71.6397 12.6387 71.285 13.9174 70.5757 15C69.8663 16.064 68.8583 16.8854 67.5517 17.464C66.2637 18.024 64.7237 18.304 62.9317 18.304H57.0517L59.5157 15.98V23.512H53.9717ZM66.0957 23.512L61.2237 16.372H67.1317L72.0317 23.512H66.0957ZM59.5157 16.568L57.0517 14.02H62.5957C63.753 14.02 64.6117 13.768 65.1717 13.264C65.7503 12.76 66.0397 12.06 66.0397 11.164C66.0397 10.2494 65.7503 9.54002 65.1717 9.03602C64.6117 8.53202 63.753 8.28002 62.5957 8.28002H57.0517L59.5157 5.73202V16.568ZM80.9982 23.764C79.2062 23.764 77.6382 23.428 76.2942 22.756C74.9689 22.0654 73.9329 21.132 73.1862 19.956C72.4582 18.7614 72.0942 17.408 72.0942 15.896C72.0942 14.384 72.4489 13.04 73.1582 11.864C73.8862 10.6694 74.8849 9.74536 76.1542 9.09202C77.4236 8.42002 78.8516 8.08402 80.4382 8.08402C81.9316 8.08402 83.2942 8.39202 84.5262 9.00802C85.7582 9.60536 86.7382 10.492 87.4662 11.668C88.1942 12.844 88.5582 14.272 88.5582 15.952C88.5582 16.1387 88.5489 16.3534 88.5302 16.596C88.5116 16.8387 88.4929 17.0627 88.4742 17.268H76.4622V14.468H85.6462L83.6302 15.252C83.6489 14.5614 83.5182 13.964 83.2382 13.46C82.9769 12.956 82.6036 12.564 82.1182 12.284C81.6516 12.004 81.1009 11.864 80.4662 11.864C79.8316 11.864 79.2716 12.004 78.7862 12.284C78.3196 12.564 77.9556 12.9654 77.6942 13.488C77.4329 13.992 77.3022 14.5894 77.3022 15.28V16.092C77.3022 16.8387 77.4516 17.4827 77.7502 18.024C78.0676 18.5654 78.5156 18.9854 79.0942 19.284C79.6729 19.564 80.3636 19.704 81.1662 19.704C81.9129 19.704 82.5476 19.6014 83.0702 19.396C83.6116 19.172 84.1436 18.836 84.6662 18.388L87.4662 21.3C86.7382 22.1027 85.8422 22.7187 84.7782 23.148C83.7142 23.5587 82.4542 23.764 80.9982 23.764ZM97.3671 23.764C95.6871 23.764 94.1844 23.428 92.8591 22.756C91.5524 22.084 90.5257 21.16 89.7791 19.984C89.0324 18.7894 88.6591 17.4267 88.6591 15.896C88.6591 14.3654 89.0324 13.012 89.7791 11.836C90.5257 10.66 91.5524 9.74536 92.8591 9.09202C94.1844 8.42002 95.6871 8.08402 97.3671 8.08402C99.0844 8.08402 100.568 8.44802 101.819 9.17602C103.07 9.90402 103.956 10.9307 104.479 12.256L100.363 14.356C100.008 13.6467 99.5697 13.1334 99.0471 12.816C98.5244 12.48 97.9551 12.312 97.3391 12.312C96.7231 12.312 96.1631 12.452 95.6591 12.732C95.1551 13.012 94.7537 13.4227 94.4551 13.964C94.1751 14.4867 94.0351 15.1307 94.0351 15.896C94.0351 16.68 94.1751 17.3427 94.4551 17.884C94.7537 18.4254 95.1551 18.836 95.6591 19.116C96.1631 19.396 96.7231 19.536 97.3391 19.536C97.9551 19.536 98.5244 19.3774 99.0471 19.06C99.5697 18.724 100.008 18.2014 100.363 17.492L104.479 19.592C103.956 20.9174 103.07 21.944 101.819 22.672C100.568 23.4 99.0844 23.764 97.3671 23.764ZM114.35 23.512V20.684L113.986 19.984V14.776C113.986 13.936 113.725 13.292 113.202 12.844C112.698 12.3774 111.886 12.144 110.766 12.144C110.038 12.144 109.301 12.2654 108.554 12.508C107.808 12.732 107.173 13.0494 106.65 13.46L104.858 9.84802C105.717 9.28802 106.744 8.85869 107.938 8.56002C109.152 8.24269 110.356 8.08402 111.55 8.08402C114.014 8.08402 115.918 8.65336 117.262 9.79202C118.625 10.912 119.306 12.676 119.306 15.084V23.512H114.35ZM109.87 23.764C108.657 23.764 107.63 23.5587 106.79 23.148C105.95 22.7374 105.306 22.1774 104.858 21.468C104.429 20.7587 104.214 19.9654 104.214 19.088C104.214 18.1547 104.448 17.352 104.914 16.68C105.4 15.9894 106.137 15.4667 107.126 15.112C108.116 14.7387 109.394 14.552 110.962 14.552H114.546V17.324H111.69C110.832 17.324 110.225 17.464 109.87 17.744C109.534 18.024 109.366 18.3974 109.366 18.864C109.366 19.3307 109.544 19.704 109.898 19.984C110.253 20.264 110.738 20.404 111.354 20.404C111.933 20.404 112.456 20.264 112.922 19.984C113.408 19.6854 113.762 19.2374 113.986 18.64L114.714 20.6C114.434 21.6454 113.884 22.4387 113.062 22.98C112.26 23.5027 111.196 23.764 109.87 23.764ZM130.812 23.764C129.524 23.764 128.423 23.484 127.508 22.924C126.594 22.3454 125.894 21.4867 125.408 20.348C124.942 19.1907 124.708 17.716 124.708 15.924C124.708 14.1134 124.932 12.6387 125.38 11.5C125.828 10.3427 126.5 9.48402 127.396 8.92402C128.311 8.36402 129.45 8.08402 130.812 8.08402C132.194 8.08402 133.444 8.41069 134.564 9.06402C135.703 9.69869 136.599 10.604 137.252 11.78C137.924 12.9374 138.26 14.3187 138.26 15.924C138.26 17.5294 137.924 18.92 137.252 20.096C136.599 21.272 135.703 22.1774 134.564 22.812C133.444 23.4467 132.194 23.764 130.812 23.764ZM121.264 28.944V8.33602H126.332V10.912L126.304 15.924L126.584 20.964V28.944H121.264ZM129.692 19.536C130.29 19.536 130.822 19.396 131.288 19.116C131.774 18.836 132.156 18.4254 132.436 17.884C132.735 17.3427 132.884 16.6894 132.884 15.924C132.884 15.1587 132.735 14.5054 132.436 13.964C132.156 13.4227 131.774 13.012 131.288 12.732C130.822 12.452 130.29 12.312 129.692 12.312C129.095 12.312 128.554 12.452 128.068 12.732C127.602 13.012 127.219 13.4227 126.92 13.964C126.64 14.5054 126.5 15.1587 126.5 15.924C126.5 16.6894 126.64 17.3427 126.92 17.884C127.219 18.4254 127.602 18.836 128.068 19.116C128.554 19.396 129.095 19.536 129.692 19.536Z"/>
</mask>
<path d="M5.53451 23.512L14.1865 3.91202H19.6465L28.3265 23.512H22.5585L15.7825 6.62802H17.9665L11.1905 23.512H5.53451ZM10.2665 19.704L11.6945 15.616H21.2705L22.6985 19.704H10.2665ZM28.2462 23.512V8.33602H33.3142V12.648L32.3342 11.388C32.9129 10.2867 33.7062 9.46536 34.7142 8.92402C35.7222 8.36402 36.8609 8.08402 38.1302 8.08402C39.3062 8.08402 40.3702 8.32669 41.3222 8.81202C42.2742 9.27869 43.0209 10.0067 43.5622 10.996C44.1222 11.9854 44.4022 13.264 44.4022 14.832V23.512H39.0822V15.7C39.0822 14.6174 38.8582 13.8334 38.4102 13.348C37.9809 12.844 37.3742 12.592 36.5902 12.592C36.0302 12.592 35.5169 12.7227 35.0502 12.984C34.5836 13.2267 34.2196 13.6094 33.9582 14.132C33.6969 14.6547 33.5662 15.336 33.5662 16.176V23.512H28.2462ZM46.3423 23.512V8.33602H51.6623V23.512H46.3423ZM49.0023 6.65602C48.0317 6.65602 47.2477 6.38536 46.6503 5.84402C46.053 5.30269 45.7543 4.63069 45.7543 3.82802C45.7543 3.02536 46.053 2.35336 46.6503 1.81202C47.2477 1.27069 48.0317 1.00002 49.0023 1.00002C49.973 1.00002 50.757 1.26136 51.3543 1.78402C51.9517 2.28802 52.2503 2.94136 52.2503 3.74402C52.2503 4.58402 51.9517 5.28402 51.3543 5.84402C50.7757 6.38536 49.9917 6.65602 49.0023 6.65602ZM53.9717 23.512V3.91202H62.7357C65.5917 3.91202 67.785 4.56536 69.3157 5.87202C70.865 7.16002 71.6397 8.92402 71.6397 11.164C71.6397 12.6387 71.285 13.9174 70.5757 15C69.8663 16.064 68.8583 16.8854 67.5517 17.464C66.2637 18.024 64.7237 18.304 62.9317 18.304H57.0517L59.5157 15.98V23.512H53.9717ZM66.0957 23.512L61.2237 16.372H67.1317L72.0317 23.512H66.0957ZM59.5157 16.568L57.0517 14.02H62.5957C63.753 14.02 64.6117 13.768 65.1717 13.264C65.7503 12.76 66.0397 12.06 66.0397 11.164C66.0397 10.2494 65.7503 9.54002 65.1717 9.03602C64.6117 8.53202 63.753 8.28002 62.5957 8.28002H57.0517L59.5157 5.73202V16.568ZM80.9982 23.764C79.2062 23.764 77.6382 23.428 76.2942 22.756C74.9689 22.0654 73.9329 21.132 73.1862 19.956C72.4582 18.7614 72.0942 17.408 72.0942 15.896C72.0942 14.384 72.4489 13.04 73.1582 11.864C73.8862 10.6694 74.8849 9.74536 76.1542 9.09202C77.4236 8.42002 78.8516 8.08402 80.4382 8.08402C81.9316 8.08402 83.2942 8.39202 84.5262 9.00802C85.7582 9.60536 86.7382 10.492 87.4662 11.668C88.1942 12.844 88.5582 14.272 88.5582 15.952C88.5582 16.1387 88.5489 16.3534 88.5302 16.596C88.5116 16.8387 88.4929 17.0627 88.4742 17.268H76.4622V14.468H85.6462L83.6302 15.252C83.6489 14.5614 83.5182 13.964 83.2382 13.46C82.9769 12.956 82.6036 12.564 82.1182 12.284C81.6516 12.004 81.1009 11.864 80.4662 11.864C79.8316 11.864 79.2716 12.004 78.7862 12.284C78.3196 12.564 77.9556 12.9654 77.6942 13.488C77.4329 13.992 77.3022 14.5894 77.3022 15.28V16.092C77.3022 16.8387 77.4516 17.4827 77.7502 18.024C78.0676 18.5654 78.5156 18.9854 79.0942 19.284C79.6729 19.564 80.3636 19.704 81.1662 19.704C81.9129 19.704 82.5476 19.6014 83.0702 19.396C83.6116 19.172 84.1436 18.836 84.6662 18.388L87.4662 21.3C86.7382 22.1027 85.8422 22.7187 84.7782 23.148C83.7142 23.5587 82.4542 23.764 80.9982 23.764ZM97.3671 23.764C95.6871 23.764 94.1844 23.428 92.8591 22.756C91.5524 22.084 90.5257 21.16 89.7791 19.984C89.0324 18.7894 88.6591 17.4267 88.6591 15.896C88.6591 14.3654 89.0324 13.012 89.7791 11.836C90.5257 10.66 91.5524 9.74536 92.8591 9.09202C94.1844 8.42002 95.6871 8.08402 97.3671 8.08402C99.0844 8.08402 100.568 8.44802 101.819 9.17602C103.07 9.90402 103.956 10.9307 104.479 12.256L100.363 14.356C100.008 13.6467 99.5697 13.1334 99.0471 12.816C98.5244 12.48 97.9551 12.312 97.3391 12.312C96.7231 12.312 96.1631 12.452 95.6591 12.732C95.1551 13.012 94.7537 13.4227 94.4551 13.964C94.1751 14.4867 94.0351 15.1307 94.0351 15.896C94.0351 16.68 94.1751 17.3427 94.4551 17.884C94.7537 18.4254 95.1551 18.836 95.6591 19.116C96.1631 19.396 96.7231 19.536 97.3391 19.536C97.9551 19.536 98.5244 19.3774 99.0471 19.06C99.5697 18.724 100.008 18.2014 100.363 17.492L104.479 19.592C103.956 20.9174 103.07 21.944 101.819 22.672C100.568 23.4 99.0844 23.764 97.3671 23.764ZM114.35 23.512V20.684L113.986 19.984V14.776C113.986 13.936 113.725 13.292 113.202 12.844C112.698 12.3774 111.886 12.144 110.766 12.144C110.038 12.144 109.301 12.2654 108.554 12.508C107.808 12.732 107.173 13.0494 106.65 13.46L104.858 9.84802C105.717 9.28802 106.744 8.85869 107.938 8.56002C109.152 8.24269 110.356 8.08402 111.55 8.08402C114.014 8.08402 115.918 8.65336 117.262 9.79202C118.625 10.912 119.306 12.676 119.306 15.084V23.512H114.35ZM109.87 23.764C108.657 23.764 107.63 23.5587 106.79 23.148C105.95 22.7374 105.306 22.1774 104.858 21.468C104.429 20.7587 104.214 19.9654 104.214 19.088C104.214 18.1547 104.448 17.352 104.914 16.68C105.4 15.9894 106.137 15.4667 107.126 15.112C108.116 14.7387 109.394 14.552 110.962 14.552H114.546V17.324H111.69C110.832 17.324 110.225 17.464 109.87 17.744C109.534 18.024 109.366 18.3974 109.366 18.864C109.366 19.3307 109.544 19.704 109.898 19.984C110.253 20.264 110.738 20.404 111.354 20.404C111.933 20.404 112.456 20.264 112.922 19.984C113.408 19.6854 113.762 19.2374 113.986 18.64L114.714 20.6C114.434 21.6454 113.884 22.4387 113.062 22.98C112.26 23.5027 111.196 23.764 109.87 23.764ZM130.812 23.764C129.524 23.764 128.423 23.484 127.508 22.924C126.594 22.3454 125.894 21.4867 125.408 20.348C124.942 19.1907 124.708 17.716 124.708 15.924C124.708 14.1134 124.932 12.6387 125.38 11.5C125.828 10.3427 126.5 9.48402 127.396 8.92402C128.311 8.36402 129.45 8.08402 130.812 8.08402C132.194 8.08402 133.444 8.41069 134.564 9.06402C135.703 9.69869 136.599 10.604 137.252 11.78C137.924 12.9374 138.26 14.3187 138.26 15.924C138.26 17.5294 137.924 18.92 137.252 20.096C136.599 21.272 135.703 22.1774 134.564 22.812C133.444 23.4467 132.194 23.764 130.812 23.764ZM121.264 28.944V8.33602H126.332V10.912L126.304 15.924L126.584 20.964V28.944H121.264ZM129.692 19.536C130.29 19.536 130.822 19.396 131.288 19.116C131.774 18.836 132.156 18.4254 132.436 17.884C132.735 17.3427 132.884 16.6894 132.884 15.924C132.884 15.1587 132.735 14.5054 132.436 13.964C132.156 13.4227 131.774 13.012 131.288 12.732C130.822 12.452 130.29 12.312 129.692 12.312C129.095 12.312 128.554 12.452 128.068 12.732C127.602 13.012 127.219 13.4227 126.92 13.964C126.64 14.5054 126.5 15.1587 126.5 15.924C126.5 16.6894 126.64 17.3427 126.92 17.884C127.219 18.4254 127.602 18.836 128.068 19.116C128.554 19.396 129.095 19.536 129.692 19.536Z" fill="#D49A3D"/>
<path d="M5.53451 23.512L4.61968 23.1082L3.99999 24.512H5.53451V23.512ZM14.1865 3.91202V2.91202H13.5348L13.2717 3.50819L14.1865 3.91202ZM19.6465 3.91202L20.5609 3.5071L20.2973 2.91202H19.6465V3.91202ZM28.3265 23.512V24.512H29.863L29.2409 23.1071L28.3265 23.512ZM22.5585 23.512L21.6305 23.8845L21.8823 24.512H22.5585V23.512ZM15.7825 6.62802V5.62802H14.3037L14.8545 7.00047L15.7825 6.62802ZM17.9665 6.62802L18.8946 7.00047L19.4454 5.62802H17.9665V6.62802ZM11.1905 23.512V24.512H11.8667L12.1186 23.8845L11.1905 23.512ZM10.2665 19.704L9.32245 19.3742L8.85794 20.704H10.2665V19.704ZM11.6945 15.616V14.616H10.9846L10.7505 15.2862L11.6945 15.616ZM21.2705 15.616L22.2146 15.2862L21.9805 14.616H21.2705V15.616ZM22.6985 19.704V20.704H24.1071L23.6426 19.3742L22.6985 19.704ZM5.53451 23.512L6.44935 23.9159L15.1013 4.31586L14.1865 3.91202L13.2717 3.50819L4.61968 23.1082L5.53451 23.512ZM14.1865 3.91202V4.91202H19.6465V3.91202V2.91202H14.1865V3.91202ZM19.6465 3.91202L18.7322 4.31695L27.4122 23.917L28.3265 23.512L29.2409 23.1071L20.5609 3.5071L19.6465 3.91202ZM28.3265 23.512V22.512H22.5585V23.512V24.512H28.3265V23.512ZM22.5585 23.512L23.4866 23.1396L16.7106 6.25557L15.7825 6.62802L14.8545 7.00047L21.6305 23.8845L22.5585 23.512ZM15.7825 6.62802V7.62802H17.9665V6.62802V5.62802H15.7825V6.62802ZM17.9665 6.62802L17.0385 6.25557L10.2625 23.1396L11.1905 23.512L12.1186 23.8845L18.8946 7.00047L17.9665 6.62802ZM11.1905 23.512V22.512H5.53451V23.512V24.512H11.1905V23.512ZM10.2665 19.704L11.2106 20.0338L12.6386 15.9458L11.6945 15.616L10.7505 15.2862L9.32245 19.3742L10.2665 19.704ZM11.6945 15.616V16.616H21.2705V15.616V14.616H11.6945V15.616ZM21.2705 15.616L20.3265 15.9458L21.7545 20.0338L22.6985 19.704L23.6426 19.3742L22.2146 15.2862L21.2705 15.616ZM22.6985 19.704V18.704H10.2665V19.704V20.704H22.6985V19.704ZM28.2462 23.512H27.2462V24.512H28.2462V23.512ZM28.2462 8.33602V7.33602H27.2462V8.33602H28.2462ZM33.3142 8.33602H34.3142V7.33602H33.3142V8.33602ZM33.3142 12.648L32.5249 13.262L34.3142 15.5626V12.648H33.3142ZM32.3342 11.388L31.449 10.9229L31.1493 11.4933L31.5449 12.002L32.3342 11.388ZM34.7142 8.92402L35.1874 9.80502L35.1936 9.80164L35.1999 9.79818L34.7142 8.92402ZM41.3222 8.81202L40.868 9.70293L40.875 9.70649L40.8821 9.70994L41.3222 8.81202ZM43.5622 10.996L42.685 11.476L42.6884 11.4824L42.692 11.4886L43.5622 10.996ZM44.4022 23.512V24.512H45.4022V23.512H44.4022ZM39.0822 23.512H38.0822V24.512H39.0822V23.512ZM38.4102 13.348L37.649 13.9965L37.6619 14.0117L37.6754 14.0263L38.4102 13.348ZM35.0502 12.984L35.5116 13.8712L35.5253 13.8641L35.5388 13.8565L35.0502 12.984ZM33.5662 23.512V24.512H34.5662V23.512H33.5662ZM28.2462 23.512H29.2462V8.33602H28.2462H27.2462V23.512H28.2462ZM28.2462 8.33602V9.33602H33.3142V8.33602V7.33602H28.2462V8.33602ZM33.3142 8.33602H32.3142V12.648H33.3142H34.3142V8.33602H33.3142ZM33.3142 12.648L34.1036 12.0341L33.1236 10.7741L32.3342 11.388L31.5449 12.002L32.5249 13.262L33.3142 12.648ZM32.3342 11.388L33.2195 11.8532C33.7138 10.9123 34.3706 10.2437 35.1874 9.80502L34.7142 8.92402L34.2411 8.04303C33.0419 8.68704 32.112 9.66107 31.449 10.9229L32.3342 11.388ZM34.7142 8.92402L35.1999 9.79818C36.0447 9.32883 37.0133 9.08402 38.1302 9.08402V8.08402V7.08402C36.7085 7.08402 35.3998 7.39922 34.2286 8.04987L34.7142 8.92402ZM38.1302 8.08402V9.08402C39.1645 9.08402 40.0704 9.29629 40.868 9.70293L41.3222 8.81202L41.7764 7.92112C40.6701 7.35709 39.448 7.08402 38.1302 7.08402V8.08402ZM41.3222 8.81202L40.8821 9.70994C41.6366 10.0798 42.236 10.6556 42.685 11.476L43.5622 10.996L44.4395 10.516C43.8058 9.3578 42.9118 8.47756 41.7624 7.9141L41.3222 8.81202ZM43.5622 10.996L42.692 11.4886C43.1407 12.2814 43.4022 13.3742 43.4022 14.832H44.4022H45.4022C45.4022 13.1538 45.1038 11.6893 44.4325 10.5034L43.5622 10.996ZM44.4022 14.832H43.4022V23.512H44.4022H45.4022V14.832H44.4022ZM44.4022 23.512V22.512H39.0822V23.512V24.512H44.4022V23.512ZM39.0822 23.512H40.0822V15.7H39.0822H38.0822V23.512H39.0822ZM39.0822 15.7H40.0822C40.0822 14.5172 39.844 13.427 39.145 12.6697L38.4102 13.348L37.6754 14.0263C37.8724 14.2397 38.0822 14.7175 38.0822 15.7H39.0822ZM38.4102 13.348L39.1715 12.6996C38.5167 11.9309 37.6077 11.592 36.5902 11.592V12.592V13.592C37.1408 13.592 37.4451 13.7572 37.649 13.9965L38.4102 13.348ZM36.5902 12.592V11.592C35.8675 11.592 35.1847 11.7626 34.5616 12.1115L35.0502 12.984L35.5388 13.8565C35.8491 13.6828 36.193 13.592 36.5902 13.592V12.592ZM35.0502 12.984L34.5889 12.0968C33.9144 12.4475 33.4085 12.9954 33.0638 13.6848L33.9582 14.132L34.8527 14.5792C35.0306 14.2233 35.2527 14.0058 35.5116 13.8712L35.0502 12.984ZM33.9582 14.132L33.0638 13.6848C32.7094 14.3936 32.5662 15.244 32.5662 16.176H33.5662H34.5662C34.5662 15.4281 34.6844 14.9158 34.8527 14.5792L33.9582 14.132ZM33.5662 16.176H32.5662V23.512H33.5662H34.5662V16.176H33.5662ZM33.5662 23.512V22.512H28.2462V23.512V24.512H33.5662V23.512ZM46.3423 23.512H45.3423V24.512H46.3423V23.512ZM46.3423 8.33602V7.33602H45.3423V8.33602H46.3423ZM51.6623 8.33602H52.6623V7.33602H51.6623V8.33602ZM51.6623 23.512V24.512H52.6623V23.512H51.6623ZM46.6503 5.84402L47.3218 5.10303V5.10303L46.6503 5.84402ZM46.6503 1.81202L47.3218 2.55301V2.55301L46.6503 1.81202ZM51.3543 1.78402L50.6958 2.5366L50.7026 2.54252L50.7095 2.54832L51.3543 1.78402ZM51.3543 5.84402L52.0375 6.5743L52.0383 6.57356L51.3543 5.84402ZM46.3423 23.512H47.3423V8.33602H46.3423H45.3423V23.512H46.3423ZM46.3423 8.33602V9.33602H51.6623V8.33602V7.33602H46.3423V8.33602ZM51.6623 8.33602H50.6623V23.512H51.6623H52.6623V8.33602H51.6623ZM51.6623 23.512V22.512H46.3423V23.512V24.512H51.6623V23.512ZM49.0023 6.65602V5.65602C48.2265 5.65602 47.6992 5.44501 47.3218 5.10303L46.6503 5.84402L45.9788 6.58501C46.7961 7.3257 47.8368 7.65602 49.0023 7.65602V6.65602ZM46.6503 5.84402L47.3218 5.10303C46.9327 4.75033 46.7543 4.34701 46.7543 3.82802H45.7543H44.7543C44.7543 4.91437 45.1733 5.85505 45.9788 6.58501L46.6503 5.84402ZM45.7543 3.82802H46.7543C46.7543 3.30903 46.9327 2.90572 47.3218 2.55301L46.6503 1.81202L45.9788 1.07104C45.1733 1.80099 44.7543 2.74168 44.7543 3.82802H45.7543ZM46.6503 1.81202L47.3218 2.55301C47.6992 2.21104 48.2265 2.00002 49.0023 2.00002V1.00002V2.28882e-05C47.8368 2.28882e-05 46.7961 0.330343 45.9788 1.07104L46.6503 1.81202ZM49.0023 1.00002V2.00002C49.7871 2.00002 50.3191 2.20699 50.6958 2.5366L51.3543 1.78402L52.0128 1.03145C51.1949 0.315727 50.1589 2.28882e-05 49.0023 2.28882e-05V1.00002ZM51.3543 1.78402L50.7095 2.54832C51.0747 2.85648 51.2503 3.22683 51.2503 3.74402H52.2503H53.2503C53.2503 2.65588 52.8286 1.71957 51.9992 1.01973L51.3543 1.78402ZM52.2503 3.74402H51.2503C51.2503 4.31572 51.0602 4.749 50.6704 5.11448L51.3543 5.84402L52.0383 6.57356C52.8431 5.81904 53.2503 4.85233 53.2503 3.74402H52.2503ZM51.3543 5.84402L50.6712 5.11375C50.3209 5.44144 49.8039 5.65602 49.0023 5.65602V6.65602V7.65602C50.1794 7.65602 51.2304 7.32928 52.0375 6.5743L51.3543 5.84402ZM53.9717 23.512H52.9717V24.512H53.9717V23.512ZM53.9717 3.91202V2.91202H52.9717V3.91202H53.9717ZM69.3157 5.87202L68.6664 6.63265L68.6764 6.641L69.3157 5.87202ZM70.5757 15L71.4077 15.5547L71.4121 15.548L70.5757 15ZM67.5517 17.464L67.9504 18.3811L67.9566 18.3784L67.5517 17.464ZM57.0517 18.304L56.3655 17.5766L54.534 19.304H57.0517V18.304ZM59.5157 15.98H60.5157V13.6622L58.8295 15.2526L59.5157 15.98ZM59.5157 23.512V24.512H60.5157V23.512H59.5157ZM66.0957 23.512L65.2696 24.0757L65.5674 24.512H66.0957V23.512ZM61.2237 16.372V15.372H59.3307L60.3976 16.9357L61.2237 16.372ZM67.1317 16.372L67.9562 15.8062L67.6582 15.372H67.1317V16.372ZM72.0317 23.512V24.512H73.9308L72.8562 22.9462L72.0317 23.512ZM59.5157 16.568L58.7968 17.2632L60.5157 19.0406V16.568H59.5157ZM57.0517 14.02V13.02H54.6935L56.3328 14.7152L57.0517 14.02ZM65.1717 13.264L64.5149 12.5099L64.5088 12.5153L64.5027 12.5207L65.1717 13.264ZM65.1717 9.03602L64.5027 9.77932L64.5088 9.78476L64.5149 9.7901L65.1717 9.03602ZM57.0517 8.28002L56.3328 7.58486L54.6935 9.28002H57.0517V8.28002ZM59.5157 5.73202H60.5157V3.25941L58.7968 5.03687L59.5157 5.73202ZM53.9717 23.512H54.9717V3.91202H53.9717H52.9717V23.512H53.9717ZM53.9717 3.91202V4.91202H62.7357V3.91202V2.91202H53.9717V3.91202ZM62.7357 3.91202V4.91202C65.4521 4.91202 67.3797 5.5342 68.6664 6.63259L69.3157 5.87202L69.9649 5.11146C68.1903 3.59652 65.7312 2.91202 62.7357 2.91202V3.91202ZM69.3157 5.87202L68.6764 6.641C69.9698 7.71626 70.6397 9.18369 70.6397 11.164H71.6397H72.6397C72.6397 8.66435 71.7602 6.60378 69.9549 5.10304L69.3157 5.87202ZM71.6397 11.164H70.6397C70.6397 12.4719 70.3275 13.5541 69.7392 14.452L70.5757 15L71.4121 15.548C72.2425 14.2806 72.6397 12.8055 72.6397 11.164H71.6397ZM70.5757 15L69.7436 14.4453C69.1517 15.3332 68.3008 16.0386 67.1467 16.5497L67.5517 17.464L67.9566 18.3784C69.4158 17.7321 70.581 16.7949 71.4077 15.5547L70.5757 15ZM67.5517 17.464L67.1529 16.547C66.0203 17.0394 64.6229 17.304 62.9317 17.304V18.304V19.304C64.8245 19.304 66.507 19.0087 67.9504 18.3811L67.5517 17.464ZM62.9317 18.304V17.304H57.0517V18.304V19.304H62.9317V18.304ZM57.0517 18.304L57.7378 19.0315L60.2018 16.7075L59.5157 15.98L58.8295 15.2526L56.3655 17.5766L57.0517 18.304ZM59.5157 15.98H58.5157V23.512H59.5157H60.5157V15.98H59.5157ZM59.5157 23.512V22.512H53.9717V23.512V24.512H59.5157V23.512ZM66.0957 23.512L66.9217 22.9484L62.0497 15.8084L61.2237 16.372L60.3976 16.9357L65.2696 24.0757L66.0957 23.512ZM61.2237 16.372V17.372H67.1317V16.372V15.372H61.2237V16.372ZM67.1317 16.372L66.3072 16.9379L71.2072 24.0779L72.0317 23.512L72.8562 22.9462L67.9562 15.8062L67.1317 16.372ZM72.0317 23.512V22.512H66.0957V23.512V24.512H72.0317V23.512ZM59.5157 16.568L60.2345 15.8729L57.7705 13.3249L57.0517 14.02L56.3328 14.7152L58.7968 17.2632L59.5157 16.568ZM57.0517 14.02V15.02H62.5957V14.02V13.02H57.0517V14.02ZM62.5957 14.02V15.02C63.8724 15.02 65.0202 14.7457 65.8406 14.0073L65.1717 13.264L64.5027 12.5207C64.2031 12.7904 63.6336 13.02 62.5957 13.02V14.02ZM65.1717 13.264L65.8284 14.0181C66.6625 13.2917 67.0397 12.2957 67.0397 11.164H66.0397H65.0397C65.0397 11.8244 64.8382 12.2284 64.5149 12.5099L65.1717 13.264ZM66.0397 11.164H67.0397C67.0397 10.0211 66.6672 9.0125 65.8284 8.28194L65.1717 9.03602L64.5149 9.7901C64.8334 10.0676 65.0397 10.4776 65.0397 11.164H66.0397ZM65.1717 9.03602L65.8406 8.29273C65.0202 7.55437 63.8724 7.28002 62.5957 7.28002V8.28002V9.28002C63.6336 9.28002 64.2031 9.50968 64.5027 9.77932L65.1717 9.03602ZM62.5957 8.28002V7.28002H57.0517V8.28002V9.28002H62.5957V8.28002ZM57.0517 8.28002L57.7705 8.97518L60.2345 6.42718L59.5157 5.73202L58.7968 5.03687L56.3328 7.58486L57.0517 8.28002ZM59.5157 5.73202H58.5157V16.568H59.5157H60.5157V5.73202H59.5157ZM76.2942 22.756L75.8321 23.6428L75.8395 23.6467L75.847 23.6505L76.2942 22.756ZM73.1862 19.956L72.3323 20.4764L72.3371 20.4843L72.342 20.492L73.1862 19.956ZM73.1582 11.864L72.3043 11.3436L72.3019 11.3475L73.1582 11.864ZM76.1542 9.09202L76.6119 9.98122L76.6221 9.97581L76.1542 9.09202ZM84.5262 9.00802L84.079 9.90252L84.09 9.90784L84.5262 9.00802ZM87.4662 11.668L88.3165 11.1417V11.1417L87.4662 11.668ZM88.5302 16.596L89.5273 16.6727V16.6727L88.5302 16.596ZM88.4742 17.268V18.268H89.3875L89.4701 17.3586L88.4742 17.268ZM76.4622 17.268H75.4622V18.268H76.4622V17.268ZM76.4622 14.468V13.468H75.4622V14.468H76.4622ZM85.6462 14.468L86.0087 15.4L85.6462 13.468V14.468ZM83.6302 15.252L82.6306 15.225L82.5899 16.7295L83.9927 16.184L83.6302 15.252ZM83.2382 13.46L82.3505 13.9203L82.3571 13.9331L82.3641 13.9457L83.2382 13.46ZM82.1182 12.284L81.6037 13.1415L81.6111 13.1459L81.6185 13.1502L82.1182 12.284ZM78.7862 12.284L78.2865 11.4178L78.2791 11.4221L78.2717 11.4265L78.7862 12.284ZM77.6942 13.488L78.582 13.9483L78.5854 13.9418L78.5887 13.9352L77.6942 13.488ZM77.7502 18.024L76.8747 18.5071L76.881 18.5185L76.8875 18.5297L77.7502 18.024ZM79.0942 19.284L78.6356 20.1726L78.6471 20.1786L78.6587 20.1842L79.0942 19.284ZM83.0702 19.396L83.4359 20.3268L83.4443 20.3235L83.4526 20.32L83.0702 19.396ZM84.6662 18.388L85.3871 17.6949L84.7325 17.0142L84.0154 17.6288L84.6662 18.388ZM87.4662 21.3L88.207 21.9718L88.8344 21.2801L88.1871 20.6069L87.4662 21.3ZM84.7782 23.148L85.1383 24.0809L85.1454 24.0782L85.1524 24.0754L84.7782 23.148ZM80.9982 23.764V22.764C79.3318 22.764 77.9223 22.452 76.7414 21.8616L76.2942 22.756L75.847 23.6505C77.3542 24.404 79.0806 24.764 80.9982 24.764V23.764ZM76.2942 22.756L76.7564 21.8692C75.5753 21.2537 74.676 20.4367 74.0304 19.42L73.1862 19.956L72.342 20.492C73.1898 21.8273 74.3625 22.877 75.8321 23.6428L76.2942 22.756ZM73.1862 19.956L74.0402 19.4357C73.4154 18.4104 73.0942 17.2398 73.0942 15.896H72.0942H71.0942C71.0942 17.5762 71.5011 19.1123 72.3323 20.4764L73.1862 19.956ZM72.0942 15.896H73.0942C73.0942 14.5471 73.4085 13.3852 74.0145 12.3805L73.1582 11.864L72.3019 11.3475C71.4893 12.6949 71.0942 14.2209 71.0942 15.896H72.0942ZM73.1582 11.864L74.0122 12.3844C74.6424 11.3501 75.5025 10.5522 76.6119 9.98116L76.1542 9.09202L75.6966 8.20289C74.2673 8.93856 73.13 9.98862 72.3043 11.3437L73.1582 11.864ZM76.1542 9.09202L76.6221 9.97581C77.7327 9.38787 78.9973 9.08402 80.4382 9.08402V8.08402V7.08402C78.7059 7.08402 77.1145 7.45217 75.6863 8.20823L76.1542 9.09202ZM80.4382 8.08402V9.08402C81.7896 9.08402 82.9973 9.3616 84.079 9.90245L84.5262 9.00802L84.9734 8.1136C83.5911 7.42245 82.0735 7.08402 80.4382 7.08402V8.08402ZM84.5262 9.00802L84.09 9.90784C85.1495 10.4216 85.9867 11.1779 86.616 12.1944L87.4662 11.668L88.3165 11.1417C87.4898 9.80619 86.367 8.78915 84.9625 8.10821L84.5262 9.00802ZM87.4662 11.668L86.616 12.1944C87.227 13.1813 87.5582 14.4179 87.5582 15.952H88.5582H89.5582C89.5582 14.1261 89.1615 12.5067 88.3165 11.1417L87.4662 11.668ZM88.5582 15.952H87.5582C87.5582 16.1068 87.5504 16.295 87.5332 16.5193L88.5302 16.596L89.5273 16.6727C89.5474 16.4117 89.5582 16.1706 89.5582 15.952H88.5582ZM88.5302 16.596L87.5332 16.5193C87.5148 16.7582 87.4965 16.9775 87.4783 17.1775L88.4742 17.268L89.4701 17.3586C89.4893 17.1479 89.5083 16.9192 89.5273 16.6727L88.5302 16.596ZM88.4742 17.268V16.268H76.4622V17.268V18.268H88.4742V17.268ZM76.4622 17.268H77.4622V14.468H76.4622H75.4622V17.268H76.4622ZM76.4622 14.468V15.468H85.6462V14.468V13.468H76.4622V14.468ZM85.6462 14.468L85.2838 13.536L83.2678 14.32L83.6302 15.252L83.9927 16.184L86.0087 15.4L85.6462 14.468ZM83.6302 15.252L84.6299 15.279C84.6524 14.445 84.4952 13.6634 84.1124 12.9744L83.2382 13.46L82.3641 13.9457C82.5413 14.2646 82.6454 14.6777 82.6306 15.225L83.6302 15.252ZM83.2382 13.46L84.126 12.9997C83.778 12.3285 83.271 11.7946 82.618 11.4178L82.1182 12.284L81.6185 13.1502C81.9361 13.3334 82.1758 13.5835 82.3505 13.9203L83.2382 13.46ZM82.1182 12.284L82.6327 11.4265C81.9864 11.0387 81.2516 10.864 80.4662 10.864V11.864V12.864C80.9502 12.864 81.3167 12.9693 81.6037 13.1415L82.1182 12.284ZM80.4662 11.864V10.864C79.6798 10.864 78.9431 11.039 78.2865 11.4178L78.7862 12.284L79.286 13.1502C79.6 12.969 79.9833 12.864 80.4662 12.864V11.864ZM78.7862 12.284L78.2717 11.4265C77.6299 11.8116 77.1396 12.3611 76.7998 13.0408L77.6942 13.488L78.5887 13.9352C78.7715 13.5696 79.0093 13.3164 79.3007 13.1415L78.7862 12.284ZM77.6942 13.488L76.8065 13.0277C76.4571 13.7015 76.3022 14.4634 76.3022 15.28H77.3022H78.3022C78.3022 14.7153 78.4087 14.2825 78.582 13.9483L77.6942 13.488ZM77.3022 15.28H76.3022V16.092H77.3022H78.3022V15.28H77.3022ZM77.3022 16.092H76.3022C76.3022 16.9727 76.479 17.79 76.8747 18.5071L77.7502 18.024L78.6258 17.5409C78.4241 17.1754 78.3022 16.7047 78.3022 16.092H77.3022ZM77.7502 18.024L76.8875 18.5297C77.3043 19.2408 77.8954 19.7906 78.6356 20.1726L79.0942 19.284L79.5529 18.3954C79.1357 18.1801 78.8308 17.89 78.6129 17.5183L77.7502 18.024ZM79.0942 19.284L78.6587 20.1842C79.4026 20.5442 80.2493 20.704 81.1662 20.704V19.704V18.704C80.4779 18.704 79.9432 18.5839 79.5298 18.3839L79.0942 19.284ZM81.1662 19.704V20.704C81.9991 20.704 82.7653 20.5902 83.4359 20.3268L83.0702 19.396L82.7046 18.4653C82.3298 18.6125 81.8267 18.704 81.1662 18.704V19.704ZM83.0702 19.396L83.4526 20.32C84.1069 20.0493 84.7278 19.6523 85.317 19.1473L84.6662 18.388L84.0154 17.6288C83.5593 18.0197 83.1162 18.2948 82.6879 18.472L83.0702 19.396ZM84.6662 18.388L83.9454 19.0811L86.7454 21.9931L87.4662 21.3L88.1871 20.6069L85.3871 17.6949L84.6662 18.388ZM87.4662 21.3L86.7255 20.6282C86.1048 21.3126 85.3366 21.8444 84.404 22.2207L84.7782 23.148L85.1524 24.0754C86.3479 23.593 87.3717 22.8928 88.207 21.9718L87.4662 21.3ZM84.7782 23.148L84.4182 22.2151C83.4959 22.5711 82.3637 22.764 80.9982 22.764V23.764V24.764C82.5448 24.764 83.9325 24.5463 85.1383 24.0809L84.7782 23.148ZM92.8591 22.756L92.4017 23.6453L92.4068 23.6479L92.8591 22.756ZM89.7791 19.984L88.9311 20.514L88.9349 20.52L89.7791 19.984ZM89.7791 11.836L88.9349 11.3V11.3L89.7791 11.836ZM92.8591 9.09202L93.3063 9.98646L93.3113 9.98392L92.8591 9.09202ZM101.819 9.17602L102.322 8.31178V8.31178L101.819 9.17602ZM104.479 12.256L104.934 13.1468L105.743 12.734L105.409 11.8892L104.479 12.256ZM100.363 14.356L99.4687 14.8032L99.9195 15.705L100.818 15.2468L100.363 14.356ZM99.0471 12.816L98.5063 13.6572L98.5171 13.6641L98.5281 13.6708L99.0471 12.816ZM95.6591 12.732L95.1734 11.8579V11.8579L95.6591 12.732ZM94.4551 13.964L93.5794 13.4809L93.5736 13.4918L94.4551 13.964ZM94.4551 17.884L93.5669 18.3434L93.573 18.3554L93.5795 18.3671L94.4551 17.884ZM99.0471 19.06L99.5661 19.9148L99.577 19.9081L99.5878 19.9012L99.0471 19.06ZM100.363 17.492L100.818 16.6013L99.9195 16.1431L99.4687 17.0448L100.363 17.492ZM104.479 19.592L105.409 19.9589L105.743 19.114L104.934 18.7013L104.479 19.592ZM101.819 22.672L102.322 23.5363V23.5363L101.819 22.672ZM97.3671 23.764V22.764C95.8235 22.764 94.4791 22.4563 93.3113 21.8641L92.8591 22.756L92.4068 23.6479C93.8897 24.3998 95.5506 24.764 97.3671 24.764V23.764ZM92.8591 22.756L93.3164 21.8667C92.1588 21.2714 91.2694 20.4656 90.6233 19.448L89.7791 19.984L88.9349 20.52C89.7821 21.8544 90.946 22.8967 92.4017 23.6453L92.8591 22.756ZM89.7791 19.984L90.6271 19.454C89.9883 18.432 89.6591 17.2561 89.6591 15.896H88.6591H87.6591C87.6591 17.5973 88.0765 19.1467 88.9311 20.514L89.7791 19.984ZM88.6591 15.896H89.6591C89.6591 14.5357 89.9883 13.3721 90.6233 12.372L89.7791 11.836L88.9349 11.3C88.0765 12.6519 87.6591 14.195 87.6591 15.896H88.6591ZM89.7791 11.836L90.6233 12.372C91.2678 11.357 92.1538 10.5627 93.3063 9.98645L92.8591 9.09202L92.4119 8.1976C90.951 8.92801 89.7837 9.96309 88.9349 11.3L89.7791 11.836ZM92.8591 9.09202L93.3113 9.98392C94.4791 9.39179 95.8235 9.08402 97.3671 9.08402V8.08402V7.08402C95.5506 7.08402 93.8897 7.44825 92.4068 8.20012L92.8591 9.09202ZM97.3671 8.08402V9.08402C98.9408 9.08402 100.244 9.4165 101.316 10.0403L101.819 9.17602L102.322 8.31178C100.892 7.47954 99.228 7.08402 97.3671 7.08402V8.08402ZM101.819 9.17602L101.316 10.0403C102.376 10.6571 103.11 11.5102 103.549 12.6229L104.479 12.256L105.409 11.8892C104.803 10.3512 103.764 9.15092 102.322 8.31178L101.819 9.17602ZM104.479 12.256L104.025 11.3653L99.9086 13.4653L100.363 14.356L100.818 15.2468L104.934 13.1468L104.479 12.256ZM100.363 14.356L101.258 13.9088C100.843 13.0802 100.291 12.4014 99.5661 11.9612L99.0471 12.816L98.5281 13.6708C98.8484 13.8653 99.1736 14.2132 99.4687 14.8032L100.363 14.356ZM99.0471 12.816L99.5878 11.9748C98.9054 11.5361 98.1486 11.312 97.3391 11.312V12.312V13.312C97.7616 13.312 98.1435 13.4239 98.5063 13.6572L99.0471 12.816ZM97.3391 12.312V11.312C96.5651 11.312 95.8361 11.4897 95.1734 11.8579L95.6591 12.732L96.1447 13.6062C96.49 13.4144 96.881 13.312 97.3391 13.312V12.312ZM95.6591 12.732L95.1734 11.8579C94.4934 12.2357 93.962 12.7876 93.5795 13.4809L94.4551 13.964L95.3307 14.4471C95.5455 14.0578 95.8168 13.7884 96.1447 13.6062L95.6591 12.732ZM94.4551 13.964L93.5736 13.4918C93.1964 14.1958 93.0351 15.0125 93.0351 15.896H94.0351H95.0351C95.0351 15.2489 95.1537 14.7775 95.3366 14.4362L94.4551 13.964ZM94.0351 15.896H93.0351C93.0351 16.7955 93.1954 17.6253 93.5669 18.3434L94.4551 17.884L95.3433 17.4246C95.1547 17.0601 95.0351 16.5646 95.0351 15.896H94.0351ZM94.4551 17.884L93.5795 18.3671C93.962 19.0604 94.4934 19.6124 95.1734 19.9902L95.6591 19.116L96.1447 18.2419C95.8168 18.0597 95.5455 17.7903 95.3307 17.4009L94.4551 17.884ZM95.6591 19.116L95.1734 19.9902C95.8361 20.3584 96.5651 20.536 97.3391 20.536V19.536V18.536C96.881 18.536 96.49 18.4337 96.1447 18.2419L95.6591 19.116ZM97.3391 19.536V20.536C98.1367 20.536 98.8857 20.3279 99.5661 19.9148L99.0471 19.06L98.5281 18.2052C98.1631 18.4268 97.7735 18.536 97.3391 18.536V19.536ZM99.0471 19.06L99.5878 19.9012C100.298 19.4446 100.844 18.7656 101.258 17.9392L100.363 17.492L99.4687 17.0448C99.1725 17.6371 98.8415 18.0034 98.5063 18.2188L99.0471 19.06ZM100.363 17.492L99.9086 18.3828L104.025 20.4828L104.479 19.592L104.934 18.7013L100.818 16.6013L100.363 17.492ZM104.479 19.592L103.549 19.2252C103.11 20.3379 102.376 21.1909 101.316 21.8078L101.819 22.672L102.322 23.5363C103.764 22.6971 104.803 21.4969 105.409 19.9589L104.479 19.592ZM101.819 22.672L101.316 21.8078C100.244 22.4315 98.9408 22.764 97.3671 22.764V23.764V24.764C99.228 24.764 100.892 24.3685 102.322 23.5363L101.819 22.672ZM114.35 23.512H113.35V24.512H114.35V23.512ZM114.35 20.684H115.35V20.4396L115.237 20.2227L114.35 20.684ZM113.986 19.984H112.986V20.2285L113.099 20.4454L113.986 19.984ZM113.202 12.844L112.523 13.5778L112.537 13.5908L112.551 13.6033L113.202 12.844ZM108.554 12.508L108.842 13.4659L108.852 13.4626L108.863 13.4591L108.554 12.508ZM106.65 13.46L105.754 13.9045L106.301 15.0062L107.268 14.2463L106.65 13.46ZM104.858 9.84802L104.312 9.01041L103.567 9.49606L103.962 10.2925L104.858 9.84802ZM107.938 8.56002L108.181 9.53022L108.191 9.52748L107.938 8.56002ZM117.262 9.79202L116.616 10.555L116.621 10.5598L116.627 10.5646L117.262 9.79202ZM119.306 23.512V24.512H120.306V23.512H119.306ZM106.79 23.148L107.229 22.2496L106.79 23.148ZM104.858 21.468L104.003 21.9858L104.008 21.994L104.013 22.002L104.858 21.468ZM104.914 16.68L104.096 16.1051L104.093 16.1096L104.914 16.68ZM107.126 15.112L107.464 16.0534L107.471 16.0506L107.479 16.0476L107.126 15.112ZM114.546 14.552H115.546V13.552H114.546V14.552ZM114.546 17.324V18.324H115.546V17.324H114.546ZM109.87 17.744L109.251 16.9591L109.24 16.9673L109.23 16.9758L109.87 17.744ZM109.898 19.984L109.279 20.7689V20.7689L109.898 19.984ZM112.922 19.984L113.437 20.8416L113.446 20.8357L112.922 19.984ZM113.986 18.64L114.924 18.2918L113.991 15.7801L113.05 18.2889L113.986 18.64ZM114.714 20.6L115.68 20.8588L115.763 20.5508L115.652 20.2518L114.714 20.6ZM113.062 22.98L113.608 23.818L113.612 23.815L113.062 22.98ZM114.35 23.512H115.35V20.684H114.35H113.35V23.512H114.35ZM114.35 20.684L115.237 20.2227L114.873 19.5227L113.986 19.984L113.099 20.4454L113.463 21.1454L114.35 20.684ZM113.986 19.984H114.986V14.776H113.986H112.986V19.984H113.986ZM113.986 14.776H114.986C114.986 13.7143 114.646 12.7641 113.853 12.0848L113.202 12.844L112.551 13.6033C112.804 13.8199 112.986 14.1577 112.986 14.776H113.986ZM113.202 12.844L113.882 12.1103C113.106 11.3923 111.988 11.144 110.766 11.144V12.144V13.144C111.784 13.144 112.29 13.3624 112.523 13.5778L113.202 12.844ZM110.766 12.144V11.144C109.925 11.144 109.084 11.2844 108.245 11.557L108.554 12.508L108.863 13.4591C109.518 13.2463 110.151 13.144 110.766 13.144V12.144ZM108.554 12.508L108.267 11.5502C107.421 11.8041 106.669 12.1736 106.032 12.6737L106.65 13.46L107.268 14.2463C107.677 13.9252 108.194 13.66 108.842 13.4659L108.554 12.508ZM106.65 13.46L107.546 13.0156L105.754 9.40359L104.858 9.84802L103.962 10.2925L105.754 13.9045L106.65 13.46ZM104.858 9.84802L105.404 10.6856C106.153 10.1972 107.073 9.80712 108.181 9.53017L107.938 8.56002L107.696 7.58988C106.414 7.91026 105.28 8.37883 104.312 9.01041L104.858 9.84802ZM107.938 8.56002L108.191 9.52748C109.326 9.23068 110.445 9.08402 111.55 9.08402V8.08402V7.08402C110.266 7.08402 108.977 7.2547 107.685 7.59256L107.938 8.56002ZM111.55 8.08402V9.08402C113.871 9.08402 115.513 9.62059 116.616 10.555L117.262 9.79202L117.909 9.02904C116.324 7.68613 114.157 7.08402 111.55 7.08402V8.08402ZM117.262 9.79202L116.627 10.5646C117.682 11.4317 118.306 12.8596 118.306 15.084H119.306H120.306C120.306 12.4924 119.567 10.3923 117.897 9.01948L117.262 9.79202ZM119.306 15.084H118.306V23.512H119.306H120.306V15.084H119.306ZM119.306 23.512V22.512H114.35V23.512V24.512H119.306V23.512ZM109.87 23.764V22.764C108.765 22.764 107.898 22.5766 107.229 22.2496L106.79 23.148L106.351 24.0464C107.362 24.5408 108.548 24.764 109.87 24.764V23.764ZM106.79 23.148L107.229 22.2496C106.536 21.9108 106.042 21.4691 105.704 20.934L104.858 21.468L104.013 22.002C104.571 22.8856 105.364 23.5639 106.351 24.0464L106.79 23.148ZM104.858 21.468L105.714 20.9502C105.384 20.4063 105.214 19.7939 105.214 19.088H104.214H103.214C103.214 20.1369 103.473 21.1111 104.003 21.9858L104.858 21.468ZM104.214 19.088H105.214C105.214 18.3289 105.401 17.7321 105.736 17.2504L104.914 16.68L104.093 16.1096C103.494 16.972 103.214 17.9805 103.214 19.088H104.214ZM104.914 16.68L105.732 17.255C106.073 16.7705 106.62 16.3556 107.464 16.0534L107.126 15.112L106.789 14.1707C105.653 14.5778 104.726 15.2082 104.096 16.1051L104.914 16.68ZM107.126 15.112L107.479 16.0476C108.315 15.7322 109.462 15.552 110.962 15.552V14.552V13.552C109.326 13.552 107.916 13.7452 106.773 14.1764L107.126 15.112ZM110.962 14.552V15.552H114.546V14.552V13.552H110.962V14.552ZM114.546 14.552H113.546V17.324H114.546H115.546V14.552H114.546ZM114.546 17.324V16.324H111.69V17.324V18.324H114.546V17.324ZM111.69 17.324V16.324C110.781 16.324 109.882 16.4606 109.251 16.9591L109.87 17.744L110.49 18.5289C110.568 18.4674 110.882 18.324 111.69 18.324V17.324ZM109.87 17.744L109.23 16.9758C108.649 17.4599 108.366 18.1233 108.366 18.864H109.366H110.366C110.366 18.6714 110.419 18.5882 110.51 18.5122L109.87 17.744ZM109.366 18.864H108.366C108.366 19.6251 108.675 20.2922 109.279 20.7689L109.898 19.984L110.518 19.1991C110.412 19.1159 110.366 19.0363 110.366 18.864H109.366ZM109.898 19.984L109.279 20.7689C109.864 21.2313 110.594 21.404 111.354 21.404V20.404V19.404C110.882 19.404 110.642 19.2968 110.518 19.1991L109.898 19.984ZM111.354 20.404V21.404C112.102 21.404 112.805 21.2207 113.437 20.8415L112.922 19.984L112.408 19.1265C112.106 19.3073 111.764 19.404 111.354 19.404V20.404ZM112.922 19.984L113.446 20.8357C114.143 20.4067 114.63 19.7703 114.923 18.9911L113.986 18.64L113.05 18.2889C112.894 18.7044 112.672 18.964 112.398 19.1324L112.922 19.984ZM113.986 18.64L113.049 18.9882L113.777 20.9482L114.714 20.6L115.652 20.2518L114.924 18.2918L113.986 18.64ZM114.714 20.6L113.748 20.3413C113.525 21.1757 113.108 21.7523 112.512 22.1451L113.062 22.98L113.612 23.815C114.659 23.125 115.344 22.115 115.68 20.8588L114.714 20.6ZM113.062 22.98L112.516 22.142C111.927 22.5257 111.073 22.764 109.87 22.764V23.764V24.764C111.318 24.764 112.592 24.4797 113.608 23.818L113.062 22.98ZM127.508 22.924L126.974 23.7691L126.98 23.773L126.986 23.7769L127.508 22.924ZM125.408 20.348L124.481 20.722L124.484 20.7311L124.488 20.7401L125.408 20.348ZM125.38 11.5L126.311 11.8662L126.313 11.861L125.38 11.5ZM127.396 8.92402L126.874 8.07114L126.866 8.07603L127.396 8.92402ZM134.564 9.06402L134.06 9.9278L134.069 9.93274L134.077 9.9375L134.564 9.06402ZM137.252 11.78L136.378 12.2657L136.383 12.274L136.387 12.2822L137.252 11.78ZM137.252 20.096L136.384 19.5998L136.378 19.6104L137.252 20.096ZM134.564 22.812L134.077 21.9385L134.071 21.942L134.564 22.812ZM121.264 28.944H120.264V29.944H121.264V28.944ZM121.264 8.33602V7.33602H120.264V8.33602H121.264ZM126.332 8.33602H127.332V7.33602H126.332V8.33602ZM126.332 10.912L127.332 10.9176V10.912H126.332ZM126.304 15.924L125.304 15.9184L125.304 15.949L125.306 15.9795L126.304 15.924ZM126.584 20.964H127.584V20.9363L127.583 20.9086L126.584 20.964ZM126.584 28.944V29.944H127.584V28.944H126.584ZM131.288 19.116L130.788 18.2498L130.781 18.2541L130.774 18.2585L131.288 19.116ZM132.436 17.884L131.561 17.4009L131.554 17.4127L131.548 17.4246L132.436 17.884ZM132.436 13.964L131.548 14.4234L131.554 14.4354L131.561 14.4471L132.436 13.964ZM131.288 12.732L130.774 13.5895L130.781 13.5939L130.788 13.5982L131.288 12.732ZM128.068 12.732L127.568 11.8658L127.561 11.8701L127.554 11.8745L128.068 12.732ZM126.92 13.964L126.045 13.4809L126.038 13.4927L126.032 13.5046L126.92 13.964ZM126.92 17.884L126.032 18.3434L126.038 18.3554L126.045 18.3671L126.92 17.884ZM128.068 19.116L127.554 19.9735L127.561 19.9779L127.568 19.9822L128.068 19.116ZM130.812 23.764V22.764C129.671 22.764 128.759 22.5172 128.03 22.0712L127.508 22.924L126.986 23.7769C128.087 24.4509 129.377 24.764 130.812 24.764V23.764ZM127.508 22.924L128.043 22.0789C127.323 21.6238 126.746 20.9357 126.328 19.9559L125.408 20.348L124.488 20.7401C125.041 22.0377 125.864 23.067 126.974 23.7691L127.508 22.924ZM125.408 20.348L126.336 19.9741C125.933 18.9754 125.708 17.6392 125.708 15.924H124.708H123.708C123.708 17.7928 123.95 19.406 124.481 20.722L125.408 20.348ZM124.708 15.924H125.708C125.708 14.1841 125.925 12.8464 126.311 11.8661L125.38 11.5L124.45 11.1339C123.939 12.431 123.708 14.0426 123.708 15.924H124.708ZM125.38 11.5L126.313 11.861C126.697 10.8688 127.244 10.1984 127.926 9.77202L127.396 8.92402L126.866 8.07603C125.756 8.76968 124.96 9.81654 124.448 11.139L125.38 11.5ZM127.396 8.92402L127.918 9.77687C128.639 9.33593 129.585 9.08402 130.812 9.08402V8.08402V7.08402C129.315 7.08402 127.983 7.39212 126.874 8.07117L127.396 8.92402ZM130.812 8.08402V9.08402C132.028 9.08402 133.103 9.36954 134.06 9.9278L134.564 9.06402L135.068 8.20024C133.785 7.45184 132.359 7.08402 130.812 7.08402V8.08402ZM134.564 9.06402L134.077 9.9375C135.048 10.4785 135.812 11.247 136.378 12.2657L137.252 11.78L138.126 11.2944C137.386 9.96103 136.358 8.9189 135.051 8.19054L134.564 9.06402ZM137.252 11.78L136.387 12.2822C136.955 13.2591 137.26 14.4598 137.26 15.924H138.26H139.26C139.26 14.1776 138.894 12.6156 138.117 11.2779L137.252 11.78ZM138.26 15.924H137.26C137.26 17.3877 136.955 18.6008 136.384 19.5999L137.252 20.096L138.12 20.5922C138.894 19.2393 139.26 17.671 139.26 15.924H138.26ZM137.252 20.096L136.378 19.6104C135.812 20.629 135.048 21.3976 134.077 21.9385L134.564 22.812L135.051 23.6855C136.358 22.9571 137.386 21.915 138.126 20.5817L137.252 20.096ZM134.564 22.812L134.071 21.942C133.112 22.4853 132.034 22.764 130.812 22.764V23.764V24.764C132.353 24.764 133.776 24.4081 135.057 23.682L134.564 22.812ZM121.264 28.944H122.264V8.33602H121.264H120.264V28.944H121.264ZM121.264 8.33602V9.33602H126.332V8.33602V7.33602H121.264V8.33602ZM126.332 8.33602H125.332V10.912H126.332H127.332V8.33602H126.332ZM126.332 10.912L125.332 10.9064L125.304 15.9184L126.304 15.924L127.304 15.9296L127.332 10.9176L126.332 10.912ZM126.304 15.924L125.306 15.9795L125.586 21.0195L126.584 20.964L127.583 20.9086L127.303 15.8686L126.304 15.924ZM126.584 20.964H125.584V28.944H126.584H127.584V20.964H126.584ZM126.584 28.944V27.944H121.264V28.944V29.944H126.584V28.944ZM129.692 19.536V20.536C130.453 20.536 131.166 20.3557 131.803 19.9735L131.288 19.116L130.774 18.2585C130.477 18.4363 130.127 18.536 129.692 18.536V19.536ZM131.288 19.116L131.788 19.9822C132.454 19.5982 132.965 19.0392 133.324 18.3434L132.436 17.884L131.548 17.4246C131.348 17.8115 131.094 18.0738 130.788 18.2498L131.288 19.116ZM132.436 17.884L133.312 18.3671C133.709 17.6466 133.884 16.8186 133.884 15.924H132.884H131.884C131.884 16.5601 131.76 17.0388 131.561 17.4009L132.436 17.884ZM132.884 15.924H133.884C133.884 15.0294 133.709 14.2015 133.312 13.4809L132.436 13.964L131.561 14.4471C131.76 14.8093 131.884 15.288 131.884 15.924H132.884ZM132.436 13.964L133.324 13.5046C132.965 12.8088 132.454 12.2498 131.788 11.8658L131.288 12.732L130.788 13.5982C131.094 13.7742 131.348 14.0366 131.548 14.4234L132.436 13.964ZM131.288 12.732L131.803 11.8745C131.166 11.4923 130.453 11.312 129.692 11.312V12.312V13.312C130.127 13.312 130.477 13.4117 130.774 13.5895L131.288 12.732ZM129.692 12.312V11.312C128.931 11.312 128.216 11.4924 127.568 11.8658L128.068 12.732L128.568 13.5982C128.891 13.4117 129.258 13.312 129.692 13.312V12.312ZM128.068 12.732L127.554 11.8745C126.916 12.2571 126.417 12.8065 126.045 13.4809L126.92 13.964L127.796 14.4471C128.021 14.0388 128.287 13.767 128.583 13.5895L128.068 12.732ZM126.92 13.964L126.032 13.5046C125.662 14.2196 125.5 15.0388 125.5 15.924H126.5H127.5C127.5 15.2786 127.618 14.7911 127.808 14.4234L126.92 13.964ZM126.5 15.924H125.5C125.5 16.8092 125.662 17.6284 126.032 18.3434L126.92 17.884L127.808 17.4246C127.618 17.057 127.5 16.5695 127.5 15.924H126.5ZM126.92 17.884L126.045 18.3671C126.417 19.0415 126.916 19.591 127.554 19.9735L128.068 19.116L128.583 18.2585C128.287 18.0811 128.021 17.8092 127.796 17.4009L126.92 17.884ZM128.068 19.116L127.568 19.9822C128.216 20.3557 128.931 20.536 129.692 20.536V19.536V18.536C129.258 18.536 128.891 18.4364 128.568 18.2498L128.068 19.116Z" fill="black" mask="url(#path-1-outside-1_6_1565)"/>
</g>
<defs>
<filter id="filter0_d_6_1565" x="0" y="0" width="143.26" height="37.944" filterUnits="userSpaceOnUse" color-interpolation-filters="sRGB">
<feFlood flood-opacity="0" result="BackgroundImageFix"/>
<feColorMatrix in="SourceAlpha" type="matrix" values="0 0 0 0 0 0 0 0 0 0 0 0 0 0 0 0 0 0 127 0" result="hardAlpha"/>
<feOffset dy="4"/>
<feGaussianBlur stdDeviation="2"/>
<feComposite in2="hardAlpha" operator="out"/>
<feColorMatrix type="matrix" values="0 0 0 0 0 0 0 0 0 0 0 0 0 0 0 0 0 0 1 0"/>
<feBlend mode="normal" in2="BackgroundImageFix" result="effect1_dropShadow_6_1565"/>
<feBlend mode="normal" in="SourceGraphic" in2="effect1_dropShadow_6_1565" result="shape"/>
</filter>
</defs>
</svg>
