<svg width="44" height="45" viewBox="0 0 44 45" fill="none" xmlns="http://www.w3.org/2000/svg">
<g filter="url(#filter0_d_1_427)">
<path d="M22.1667 33.8333V30.2458L28.6125 23.8292C28.7875 23.6542 28.9819 23.5278 29.1958 23.45C29.4097 23.3722 29.6236 23.3333 29.8375 23.3333C30.0708 23.3333 30.2944 23.3771 30.5083 23.4646C30.7222 23.5521 30.9167 23.6833 31.0917 23.8583L32.1708 24.9375C32.3264 25.1125 32.4479 25.3069 32.5354 25.5208C32.6229 25.7347 32.6667 25.9486 32.6667 26.1625C32.6667 26.3764 32.6278 26.5951 32.55 26.8188C32.4722 27.0424 32.3458 27.2417 32.1708 27.4167L25.7542 33.8333H22.1667ZM30.9167 26.1625L29.8375 25.0833L30.9167 26.1625ZM23.9167 32.0833H25.025L28.5542 28.525L28.0292 27.9708L27.475 27.4458L23.9167 30.975V32.0833ZM12.8333 33.8333C12.1917 33.8333 11.6424 33.6049 11.1854 33.1479C10.7285 32.691 10.5 32.1417 10.5 31.5V12.8333C10.5 12.1917 10.7285 11.6424 11.1854 11.1854C11.6424 10.7285 12.1917 10.5 12.8333 10.5H22.1667L29.1667 17.5V21H26.8333V18.6667H21V12.8333H12.8333V31.5H19.8333V33.8333H12.8333ZM28.0292 27.9708L27.475 27.4458L28.5542 28.525L28.0292 27.9708Z" fill="black"/>
<path d="M22.1667 33.8333V30.2458L28.6125 23.8292C28.7875 23.6542 28.9819 23.5278 29.1958 23.45C29.4097 23.3722 29.6236 23.3333 29.8375 23.3333C30.0708 23.3333 30.2944 23.3771 30.5083 23.4646C30.7222 23.5521 30.9167 23.6833 31.0917 23.8583L32.1708 24.9375C32.3264 25.1125 32.4479 25.3069 32.5354 25.5208C32.6229 25.7347 32.6667 25.9486 32.6667 26.1625C32.6667 26.3764 32.6278 26.5951 32.55 26.8188C32.4722 27.0424 32.3458 27.2417 32.1708 27.4167L25.7542 33.8333H22.1667V33.8333M30.9167 26.1625V26.1625L29.8375 25.0833V25.0833L30.9167 26.1625V26.1625M23.9167 32.0833H25.025L28.5542 28.525L28.0292 27.9708L27.475 27.4458L23.9167 30.975V32.0833V32.0833M12.8333 33.8333C12.1917 33.8333 11.6424 33.6049 11.1854 33.1479C10.7285 32.691 10.5 32.1417 10.5 31.5V12.8333C10.5 12.1917 10.7285 11.6424 11.1854 11.1854C11.6424 10.7285 12.1917 10.5 12.8333 10.5H22.1667L29.1667 17.5V21H26.8333V18.6667H21V12.8333H12.8333V12.8333V12.8333V31.5V31.5V31.5H19.8333V33.8333H12.8333V33.8333M21 22.1667V22.1667V22.1667V22.1667V22.1667V22.1667V22.1667V22.1667V22.1667V22.1667V22.1667V22.1667V22.1667V22.1667V22.1667V22.1667V22.1667M28.0292 27.9708L27.475 27.4458V27.4458L28.5542 28.525V28.525L28.0292 27.9708V27.9708" stroke="#D49A3D" stroke-linejoin="bevel"/>
</g>
<defs>
<filter id="filter0_d_1_427" x="0" y="0" width="43.1667" height="44.3333" filterUnits="userSpaceOnUse" color-interpolation-filters="sRGB">
<feFlood flood-opacity="0" result="BackgroundImageFix"/>
<feColorMatrix in="SourceAlpha" type="matrix" values="0 0 0 0 0 0 0 0 0 0 0 0 0 0 0 0 0 0 127 0" result="hardAlpha"/>
<feOffset/>
<feGaussianBlur stdDeviation="5"/>
<feComposite in2="hardAlpha" operator="out"/>
<feColorMatrix type="matrix" values="0 0 0 0 0.537255 0 0 0 0 0.564706 0 0 0 0 0.658824 0 0 0 0.5 0"/>
<feBlend mode="normal" in2="BackgroundImageFix" result="effect1_dropShadow_1_427"/>
<feBlend mode="normal" in="SourceGraphic" in2="effect1_dropShadow_1_427" result="shape"/>
</filter>
</defs>
</svg>
